<?xml version="1.0" standalone="no"?>
<!DOCTYPE svg PUBLIC "-//W3C//DTD SVG 20010904//EN"
 "http://www.w3.org/TR/2001/REC-SVG-20010904/DTD/svg10.dtd">
<svg version="1.0" xmlns="http://www.w3.org/2000/svg"
 width="225.000000pt" height="225.000000pt" viewBox="0 0 225.000000 225.000000"
 preserveAspectRatio="xMidYMid meet">

<g transform="translate(0.000000,225.000000) scale(0.100000,-0.100000)"
fill="#000000" stroke="none">
<path d="M279 2237 c-104 -30 -199 -112 -247 -215 -23 -48 -27 -71 -27 -147 0
-150 9 -163 321 -475 145 -146 264 -270 264 -275 0 -5 -119 -129 -264 -275
-312 -312 -321 -325 -321 -475 0 -77 4 -99 27 -147 37 -80 107 -152 187 -191
59 -29 74 -32 156 -32 150 0 163 9 475 321 146 145 270 264 275 264 5 0 129
-119 275 -264 312 -312 325 -321 475 -321 82 0 97 3 156 32 80 39 150 111 187
191 23 48 27 70 27 147 0 150 -9 163 -321 475 -145 146 -264 270 -264 275 0 5
119 129 264 275 312 312 321 325 321 475 0 82 -3 97 -32 156 -39 80 -111 150
-191 187 -48 23 -70 27 -147 27 -150 0 -163 -9 -475 -321 -146 -145 -270 -264
-275 -264 -5 0 -129 119 -275 264 -222 222 -274 269 -323 291 -69 32 -179 42
-248 22z"/>
</g>
</svg>
