<?xml version="1.0" standalone="no"?>
<!DOCTYPE svg PUBLIC "-//W3C//DTD SVG 20010904//EN"
 "http://www.w3.org/TR/2001/REC-SVG-20010904/DTD/svg10.dtd">
<svg version="1.0" xmlns="http://www.w3.org/2000/svg"
 width="348.000000pt" height="183.000000pt" viewBox="0 0 348.000000 183.000000"
 preserveAspectRatio="xMidYMid meet">

<g transform="translate(0.000000,183.000000) scale(0.100000,-0.100000)"
fill="#000000" stroke="none">
<path d="M918 1742 c-137 -137 -157 -97 244 -499 l333 -333 -328 -328 c-395
-396 -376 -357 -239 -494 94 -94 115 -103 170 -74 15 8 166 154 336 325 170
171 312 311 315 311 3 0 152 -146 331 -325 300 -299 328 -325 360 -325 29 0
46 12 122 88 137 137 156 98 -239 494 l-328 328 328 328 c394 394 375 356 243
491 -79 80 -87 86 -126 86 -40 0 -45 -5 -368 -328 l-327 -327 -285 286 c-392
392 -383 384 -421 384 -28 0 -46 -13 -121 -88z"/>
</g>
</svg>
