<?xml version="1.0" standalone="no"?>
<!DOCTYPE svg PUBLIC "-//W3C//DTD SVG 20010904//EN"
 "http://www.w3.org/TR/2001/REC-SVG-20010904/DTD/svg10.dtd">
<svg version="1.0" xmlns="http://www.w3.org/2000/svg"
 width="360.000000pt" height="360.000000pt" viewBox="0 0 360.000000 360.000000"
 preserveAspectRatio="xMidYMid meet">

<g transform="translate(0.000000,360.000000) scale(0.100000,-0.100000)"
fill="#000000" stroke="none">
<path d="M468 3577 c-73 -21 -123 -59 -264 -202 -170 -171 -199 -224 -199
-360 1 -163 -9 -151 688 -852 l370 -371 -460 -464 c-252 -254 -481 -486 -507
-515 -97 -106 -121 -267 -60 -401 10 -21 88 -108 178 -198 198 -198 216 -208
366 -209 118 0 144 9 232 83 26 22 260 249 520 506 l473 466 420 -418 c483
-481 578 -571 643 -609 43 -26 55 -28 152 -28 146 0 185 20 348 179 181 176
218 236 229 367 4 52 1 83 -17 140 l-22 73 -511 513 -511 514 345 347 c189
191 406 410 481 487 224 231 232 243 232 390 1 145 -23 187 -207 370 -184 182
-207 195 -364 195 -125 0 -144 -6 -223 -68 -25 -20 -260 -249 -522 -511 l-478
-475 -502 500 c-368 366 -517 507 -554 527 -64 33 -200 45 -276 24z"/>
</g>
</svg>
